<svg version="1.1" id="Shopiweb_Premium" xmlns="http://www.w3.org/2000/svg" xmlns:xlink="http://www.w3.org/1999/xlink" x="0px"
	 y="0px" viewBox="0 0 800 800" style="enable-background:new 0 0 800 800;" xml:space="preserve">
<style type="text/css">
	.stShopiweb_Premium0{fill:#C99700;}
	.stShopiweb_Premium1{fill:#212529;}
	.stShopiweb_Premium2{fill-rule:evenodd;clip-rule:evenodd;fill:#212529;}
	.stShopiweb_Premium3{fill-rule:evenodd;clip-rule:evenodd;fill:#C99700;}
</style>
<g>
	<g id="_x3C_Premium_x3E__00000108276610881059222290000018360364436690960534_">
		<path class="stShopiweb_Premium0" d="M216.9,711.4c9.8,0,14.7,5,14.7,15V741c0,10-4.9,15-14.7,15h-13.4v28.8H187v-73.4H216.9z M215,742.8v-18.3
			c0-0.6-0.2-1.1-0.7-1.6c-0.4-0.4-1-0.7-1.6-0.7h-9.2v22.8h9.2c0.6,0,1.2-0.2,1.6-0.6C214.8,744,215,743.5,215,742.8z"/>
		<path class="stShopiweb_Premium0" d="M262.3,754.8v30.1h-16.5v-73.4h29.4c9.8,0,14.7,5,14.7,15v8.5c0,6.1-2.3,9.9-6.7,11.6
			c3.9,1.4,5.9,4.5,5.9,9.3v29.1h-16.6V757c0-1.5-0.7-2.3-2.2-2.3H262.3z M262.3,722.2v21.4h8.7c0.6,0,1.2-0.2,1.6-0.7
			c0.4-0.4,0.7-1,0.7-1.6v-16.9c0-0.6-0.2-1.2-0.7-1.6c-0.4-0.4-1-0.7-1.6-0.7H262.3z"/>
		<path class="stShopiweb_Premium0" d="M323,771.7h18.3v13.2h-34.9v-73.4h34.9v12.9H323v17.2h17.2v12.5H323V771.7z"/>
		<path class="stShopiweb_Premium0" d="M373.2,784.8h-16.5v-59.6c0-10,4.9-15,14.7-15h8.7c5.8,0,9.9,1.8,12.3,5.4c2.3-3.6,6.4-5.4,12.3-5.4h8.7
			c9.8,0,14.7,5,14.7,15v59.6h-16.5v-61c0-0.6-0.2-1.1-0.7-1.6c-0.4-0.4-0.9-0.7-1.6-0.7h-6.4c-0.6,0-1.2,0.2-1.6,0.7
			c-0.4,0.5-0.6,1-0.6,1.6v61h-16.6v-61c0-0.6-0.2-1.1-0.7-1.6c-0.4-0.4-0.9-0.7-1.6-0.7h-6.4c-0.6,0-1.2,0.2-1.6,0.7
			c-0.4,0.5-0.7,1-0.7,1.6V784.8z"/>
		<path class="stShopiweb_Premium0" d="M461.9,711.4v73.4h-16.5v-73.4H461.9z"/>
		<path class="stShopiweb_Premium0" d="M507.4,711.4H524V771c0,10-4.9,15-14.7,15h-14.7c-9.8,0-14.7-5-14.7-15v-59.6h16.5v60.9
			c0,0.6,0.2,1.1,0.7,1.6c0.4,0.5,1,0.7,1.6,0.7h6.4c0.6,0,1.1-0.2,1.6-0.7c0.4-0.4,0.7-1,0.7-1.6V711.4z"/>
		<path class="stShopiweb_Premium0" d="M557.6,784.8h-16.5v-59.6c0-10,4.9-15,14.7-15h8.7c5.8,0,9.9,1.8,12.3,5.4c2.3-3.6,6.4-5.4,12.3-5.4h8.7
			c9.8,0,14.7,5,14.7,15v59.6H596v-61c0-0.6-0.2-1.1-0.7-1.6c-0.4-0.4-0.9-0.7-1.6-0.7h-6.4c-0.6,0-1.2,0.2-1.6,0.7
			c-0.4,0.5-0.6,1-0.6,1.6v61h-16.6v-61c0-0.6-0.2-1.1-0.7-1.6c-0.4-0.4-0.9-0.7-1.6-0.7h-6.4c-0.6,0-1.2,0.2-1.6,0.7
			c-0.4,0.5-0.7,1-0.7,1.6V784.8z"/>
	</g>
	<g id="_x3C_Shopiweb_x3E__00000171683746046667309240000018164440643954686620_">
		<path class="stShopiweb_Premium1" d="M103.4,578.1H75.9v-10.1c0-1-0.4-2-1.2-2.8c-0.7-0.8-1.7-1.2-2.8-1.2H60.5c-1.1,0-2,0.4-2.8,1.2
			c-0.7,0.8-1.1,1.7-1.1,2.8v22.9c0,1.1,0.4,2,1.1,2.8c0.8,0.8,1.7,1.2,2.8,1.2h18.6c17.1,0.3,25.6,9,25.6,26.2v27.6
			c0,17.5-8.5,26.2-25.6,26.2H54.8c-17.1,0-25.6-8.7-25.6-26.2v-13.3h27.5v14.3c0,1.1,0.4,2,1.1,2.8c0.8,0.8,1.7,1.2,2.8,1.2h12.8
			c1.1,0,2-0.4,2.8-1.2c0.8-0.8,1.2-1.7,1.2-2.8v-25.2c0-1-0.4-2-1.2-2.8c-0.7-0.8-1.7-1.2-2.8-1.2H54.8c-17.1,0-25.6-8.7-25.6-26.2
			v-25.6c0-17.5,8.5-26.2,25.6-26.2h23c17.1,0,25.7,8.7,25.7,26.2V578.1z"/>
		<path class="stShopiweb_Premium1" d="M152.8,622.3v50.5h-29V544.3h29v53.8h23v-53.8h28.9v128.5h-28.9v-50.5H152.8z"/>
		<path class="stShopiweb_Premium1" d="M304.2,568.5v80c0,17.5-8.6,26.2-25.7,26.2H251c-17.1,0-25.6-8.7-25.6-26.2v-80c0-17.5,8.5-26.2,25.6-26.2
			h27.5C295.6,542.3,304.2,551.1,304.2,568.5z M275.2,651.7v-86.6c0-1-0.4-2-1.2-2.8c-0.7-0.8-1.7-1.2-2.8-1.2h-13
			c-1.1,0-2,0.4-2.8,1.2c-0.7,0.8-1.1,1.7-1.1,2.8v86.6c0,1.1,0.4,2,1.1,2.8c0.8,0.8,1.7,1.2,2.8,1.2h13c1.1,0,2-0.4,2.8-1.2
			C274.8,653.7,275.2,652.8,275.2,651.7z"/>
		<path class="stShopiweb_Premium1" d="M377.5,544.3c17.1,0,25.7,8.7,25.7,26.2v25.6c0,17.5-8.6,26.2-25.7,26.2h-23.4v50.5h-29V544.3H377.5z
			 M374.3,599.3v-32c0-1-0.4-2-1.2-2.8c-0.7-0.8-1.7-1.2-2.8-1.2h-16.1v39.9h16.1c1.1,0,2-0.4,2.8-1.2
			C373.9,601.3,374.3,600.3,374.3,599.3z"/>
		<path class="stShopiweb_Premium1" d="M446.6,544.3v128.5h-29V544.3H446.6z"/>
		<path class="stShopiweb_Premium1" d="M517.6,544.3h25.6l15.5,96.7l11.6-96.7h28.1l-21.7,128.5h-32.9l-13.4-78.8l-13.5,78.8H484l-21.7-128.5h28.1
			L502,641L517.6,544.3z"/>
		<path class="stShopiweb_Premium1" d="M643.3,649.7h32v23h-61V544.3h61v22.6h-32v30.2h29.9V619h-29.9V649.7z"/>
		<path class="stShopiweb_Premium1" d="M757.4,602.5c9,3.1,13.5,10.1,13.5,21.1v23.1c0,17.5-8.6,26.2-25.7,26.2h-53.1V544.3h51.5
			c17.1,0,25.7,8.7,25.7,26.2v11.7C769.2,592.8,765.3,599.5,757.4,602.5z M736.3,563.2H721v34.3h15.3c1.1,0,2-0.4,2.8-1.2
			c0.8-0.8,1.2-1.7,1.2-2.8v-26.4c0-1.1-0.4-2-1.2-2.8C738.3,563.6,737.4,563.2,736.3,563.2z M741.9,649.7v-28.8c0-1-0.4-2-1.2-2.8
			c-0.7-0.8-1.7-1.2-2.8-1.2H721v36.8H738c1.1,0,2-0.4,2.8-1.2C741.5,651.7,741.9,650.8,741.9,649.7z"/>
	</g>
	<path class="stShopiweb_Premium2" d="M385.2,86.5H285.1c-0.4-2.6-0.7-5.2-0.7-7.9c0-26.9,22.7-48.8,50.7-48.8c28,0,50.7,21.8,50.7,48.8
		C385.9,81.3,385.6,83.9,385.2,86.5z M227.6,405.7h43v-62.7c17.1,12.2,34.6,21.5,52.3,27.9c17.7,6.3,34.8,9.5,51.1,9.5
		c15.6,0,27.6-3,36.2-8.9c8.6-5.9,12.8-13.9,12.8-23.9v-1.1c0-5.7-1.9-10.7-5.7-15c-3.8-4.2-9-7.9-15.6-11.2
		c-6.6-3.3-14.1-6.1-22.7-8.6l-26.6-7.8c-11.6-3.4-23.2-7.3-35-11.5c-11.7-4.2-22.3-9.7-31.7-16.4c-9.3-6.7-17-14.9-23-24.7
		c-6-9.8-9-21.9-9-36.5v-1.1c0-14.2,2.9-27,8.7-38.5c5.8-11.5,13.7-21.3,23.9-29.3c10.1-8,22.1-14.2,35.9-18.4
		c13.7-4.2,28.4-6.3,43.9-6.3c19.9,0,40,3.1,60.4,9.2c5.9,1.8,11.6,3.7,17.2,5.9V86.5h-42c0.3-2.6,0.5-5.3,0.5-7.9
		c0-35.7-30.1-64.6-67.2-64.6C298.1,14,268,42.9,268,78.6c0,2.7,0.2,5.3,0.5,7.9h-56.7l-35,319.1H227.6L227.6,405.7z"/>
	<path class="stShopiweb_Premium3" d="M453.4,205c-15.2-8.8-30.5-15.8-46-21c-15.5-5.2-29.9-7.8-43-7.8c-14,0-24.8,2.9-32.6,8.6
		c-7.8,5.7-11.7,13-11.7,21.8v1.1c0,5.4,2,10.1,6,14.1c4,4,9.3,7.7,15.8,10.9c6.6,3.3,14.1,6.3,22.7,9.2c8.6,2.9,17.4,5.7,26.6,8.3
		c11.6,3.4,23.1,7.5,34.7,12.1c11.6,4.6,22,10.2,31.4,16.9c9.4,6.7,17,14.8,23,24.4c6,9.6,8.9,21.3,8.9,35v1.2c0,16.1-3,30.1-8.9,42
		c-6,11.9-14.2,21.7-24.8,29.6c-10.6,7.9-23,13.8-37.4,17.8c-14.4,4-29.7,6-46,6c-22.7,0-45.7-3.8-69-11.5
		c-6.6-2.2-13.1-4.7-19.5-7.4v71.5h293.1L541,165.8h-87.6L453.4,205L453.4,205z"/>
	<path class="stShopiweb_Premium2" d="M501.4,102.7l35.1,0.6l-4.6-33.8l-36.2-0.5L501.4,102.7z"/>
	<path class="stShopiweb_Premium3" d="M538.9,105.3l6.2,52.4l56.2-1l-8.1-52.9L538.9,105.3z"/>
	<path class="stShopiweb_Premium3" d="M583.1,71.6l3.8,32.4l34.8-0.6l-5-32.8L583.1,71.6z"/>
	<path class="stShopiweb_Premium2" d="M545.7,34.5l3.8,32.5l34.8-0.6l-5-32.8L545.7,34.5z"/>
</g>
</svg>
